<svg viewBox="0 0 16 16" version="1.1" xmlns="http://www.w3.org/2000/svg"><g id="layer1" transform="matrix(.58766 .51191 -.5119 .58767 10.798 -86.027)" stroke-width="1.283"><g aria-label="𝈊" id="text13132" style="line-height:6.61458px;-inkscape-font-specification:'Open Sans'" transform="matrix(3.14377 0 0 4.31706 -72.951 32.79)" font-size="7.761" font-family="'Open Sans'" letter-spacing="0" word-spacing="0" stroke-width=".092"><path d="M50.094 15.117c-.168.23-.42.299-.605.072-.186-.226-.936-2.214-.936-2.214s-.442 2.162-.601 2.305c-.16.143-.384.156-.51.016-.127-.14-.57-2.712-.819-2.678-.368.05-.563 2.884-.563 2.884l-.51.016s.603-3.234.712-3.388c.127-.179.278-.247.51-.016.234.23.747 2.699.854 2.687.108-.012.542-1.987.64-2.15.096-.163.418-.194.562-.017.163.2.837 2.175.962 2.167.125-.008.243-1.427.243-1.427l.51-.016s-.281 1.53-.449 1.759z" id="path14944" stroke-width=".092"/></g></g></svg>